<svg width="18" height="18" viewBox="0 0 18 18" fill="none" xmlns="http://www.w3.org/2000/svg">
<path fill-rule="evenodd" clip-rule="evenodd" d="M9.00076 10.71V7.362H17.4248C17.5508 7.929 17.6498 8.46 17.6498 9.207C17.6498 14.346 14.2028 18 9.00977 18C4.04177 18 0.00976562 13.968 0.00976562 9C0.00976562 4.032 4.04177 0 9.00977 0C11.4398 0 13.4738 0.891001 15.0308 2.349L12.4748 4.833C11.8268 4.221 10.6928 3.501 9.00977 3.501C6.03077 3.501 3.60077 5.976 3.60077 9.009C3.60077 12.042 6.03077 14.517 9.00977 14.517C12.4568 14.517 13.7258 12.132 13.9598 10.719H9.00076V10.71Z" fill="black" fill-opacity="0.4"/>
</svg>
