<svg width="312" height="258" viewBox="0 0 312 258" fill="none" xmlns="http://www.w3.org/2000/svg">
<rect width="312" height="258" rx="4" fill="#F6F6F6"/>
<path d="M195.687 167.687L162.081 134.081L123.21 95.2104L117.312 89.3125L111.731 94.8938L120.875 104.077V156.208C120.875 160.562 124.437 164.125 128.792 164.125H180.923L190.067 173.269L195.687 167.687ZM128.792 152.25L142.646 134.437L152.542 146.352L157.173 140.375L169.048 152.25H128.792ZM192.125 152.923L132.077 92.875H184.208C188.562 92.875 192.125 96.4375 192.125 100.792V152.923Z" fill="#515255"/>
<path d="M92.2803 188.891V196H90.6934V188.891H92.2803ZM94.3262 188.891H95.6445L97.3535 193.974L99.0576 188.891H100.376L97.8857 196H96.8164L94.3262 188.891ZM93.5645 188.891H94.9072L95.1562 194.159V196H93.5645V188.891ZM99.7949 188.891H101.143V196H99.5459V194.159L99.7949 188.891ZM105.366 190.243L103.53 196H101.831L104.463 188.891H105.537L105.366 190.243ZM106.89 196L105.049 190.243L104.858 188.891H105.947L108.589 196H106.89ZM106.812 193.354V194.584H103.105V193.354H106.812ZM114.81 192.245V195.111C114.692 195.245 114.513 195.388 114.272 195.541C114.035 195.694 113.73 195.826 113.359 195.937C112.988 196.044 112.546 196.098 112.031 196.098C111.566 196.098 111.143 196.023 110.762 195.873C110.381 195.72 110.054 195.497 109.78 195.204C109.507 194.908 109.295 194.547 109.146 194.12C108.999 193.694 108.926 193.205 108.926 192.655V192.235C108.926 191.685 108.999 191.197 109.146 190.771C109.292 190.344 109.499 189.984 109.766 189.691C110.033 189.395 110.35 189.171 110.718 189.018C111.086 188.865 111.493 188.788 111.938 188.788C112.573 188.788 113.092 188.891 113.496 189.096C113.9 189.298 114.206 189.577 114.414 189.936C114.626 190.294 114.756 190.705 114.805 191.171H113.271C113.239 190.933 113.174 190.728 113.076 190.556C112.982 190.383 112.847 190.251 112.671 190.16C112.495 190.066 112.267 190.019 111.987 190.019C111.763 190.019 111.559 190.066 111.377 190.16C111.198 190.251 111.047 190.39 110.923 190.575C110.799 190.761 110.705 190.992 110.64 191.269C110.575 191.542 110.542 191.861 110.542 192.226V192.655C110.542 193.02 110.575 193.34 110.64 193.617C110.708 193.894 110.807 194.125 110.938 194.311C111.068 194.493 111.232 194.631 111.431 194.726C111.632 194.82 111.867 194.867 112.134 194.867C112.342 194.867 112.518 194.851 112.661 194.818C112.804 194.783 112.922 194.739 113.013 194.687C113.104 194.631 113.172 194.581 113.218 194.535V193.354H111.953V192.245H114.81ZM120.732 194.77V196H116.948V194.77H120.732ZM117.49 188.891V196H115.898V188.891H117.49ZM120.244 191.752V192.943H116.948V191.752H120.244ZM120.737 188.891V190.126H116.948V188.891H120.737ZM122.275 188.891H123.594L125.303 193.974L127.007 188.891H128.325L125.835 196H124.766L122.275 188.891ZM121.514 188.891H122.856L123.105 194.159V196H121.514V188.891ZM127.744 188.891H129.092V196H127.495V194.159L127.744 188.891ZM138.628 188.891V196H137.041L134.355 191.405V196H132.764V188.891H134.355L137.046 193.485V188.891H138.628ZM142.847 190.243L141.011 196H139.312L141.943 188.891H143.018L142.847 190.243ZM144.37 196L142.529 190.243L142.339 188.891H143.428L146.069 196H144.37ZM144.292 193.354V194.584H140.586V193.354H144.292ZM143.701 186.991L144.561 187.045C144.561 187.283 144.512 187.501 144.414 187.699C144.32 187.898 144.188 188.057 144.019 188.178C143.853 188.295 143.662 188.354 143.447 188.354C143.294 188.354 143.161 188.334 143.047 188.295C142.933 188.253 142.827 188.204 142.729 188.148C142.632 188.09 142.533 188.039 142.432 187.997C142.331 187.955 142.217 187.934 142.09 187.934C141.986 187.934 141.895 187.973 141.816 188.051C141.742 188.129 141.704 188.243 141.704 188.393L140.835 188.344C140.835 188.113 140.882 187.898 140.977 187.699C141.071 187.497 141.201 187.336 141.367 187.216C141.536 187.095 141.73 187.035 141.948 187.035C142.078 187.035 142.199 187.056 142.31 187.099C142.424 187.138 142.533 187.185 142.637 187.24C142.744 187.296 142.852 187.344 142.959 187.387C143.066 187.429 143.18 187.45 143.301 187.45C143.408 187.45 143.501 187.411 143.579 187.333C143.66 187.255 143.701 187.141 143.701 186.991ZM152.49 192.289V192.606C152.49 193.147 152.415 193.632 152.266 194.062C152.119 194.491 151.909 194.857 151.636 195.16C151.366 195.463 151.043 195.696 150.669 195.858C150.298 196.018 149.886 196.098 149.434 196.098C148.981 196.098 148.568 196.018 148.193 195.858C147.819 195.696 147.493 195.463 147.217 195.16C146.943 194.857 146.732 194.491 146.582 194.062C146.432 193.632 146.357 193.147 146.357 192.606V192.289C146.357 191.749 146.432 191.264 146.582 190.834C146.732 190.401 146.942 190.033 147.212 189.73C147.485 189.428 147.809 189.197 148.184 189.037C148.558 188.874 148.971 188.793 149.424 188.793C149.876 188.793 150.29 188.874 150.664 189.037C151.038 189.197 151.361 189.428 151.631 189.73C151.904 190.033 152.116 190.401 152.266 190.834C152.415 191.264 152.49 191.749 152.49 192.289ZM150.884 192.606V192.279C150.884 191.918 150.851 191.599 150.786 191.322C150.721 191.042 150.627 190.808 150.503 190.619C150.379 190.43 150.226 190.289 150.044 190.194C149.862 190.097 149.655 190.048 149.424 190.048C149.183 190.048 148.973 190.097 148.794 190.194C148.615 190.289 148.464 190.43 148.34 190.619C148.219 190.808 148.127 191.042 148.062 191.322C148 191.599 147.969 191.918 147.969 192.279V192.606C147.969 192.965 148 193.284 148.062 193.563C148.127 193.84 148.221 194.075 148.345 194.267C148.468 194.459 148.62 194.604 148.799 194.701C148.981 194.799 149.193 194.848 149.434 194.848C149.665 194.848 149.87 194.799 150.049 194.701C150.231 194.604 150.384 194.459 150.508 194.267C150.632 194.075 150.724 193.84 150.786 193.563C150.851 193.284 150.884 192.965 150.884 192.606ZM160.791 194.77V196H157.007V194.77H160.791ZM157.549 188.891V196H155.957V188.891H157.549ZM160.303 191.752V192.943H157.007V191.752H160.303ZM160.796 188.891V190.126H157.007V188.891H160.796ZM167.437 188.891V196H165.85L163.164 191.405V196H161.572V188.891H163.164L165.854 193.485V188.891H167.437ZM172.7 193.617H174.282C174.256 194.105 174.123 194.537 173.882 194.911C173.644 195.282 173.314 195.574 172.891 195.785C172.467 195.993 171.965 196.098 171.382 196.098C170.916 196.098 170.5 196.018 170.132 195.858C169.764 195.699 169.451 195.471 169.194 195.175C168.94 194.875 168.745 194.516 168.608 194.096C168.475 193.673 168.408 193.196 168.408 192.665V192.23C168.408 191.7 168.478 191.223 168.618 190.8C168.758 190.377 168.958 190.015 169.219 189.716C169.479 189.416 169.792 189.187 170.156 189.027C170.521 188.868 170.928 188.788 171.377 188.788C171.982 188.788 172.493 188.897 172.91 189.115C173.327 189.333 173.649 189.633 173.877 190.014C174.108 190.395 174.246 190.829 174.292 191.317H172.705C172.692 191.041 172.64 190.808 172.549 190.619C172.458 190.427 172.318 190.282 172.129 190.185C171.94 190.087 171.689 190.038 171.377 190.038C171.149 190.038 170.949 190.08 170.776 190.165C170.607 190.25 170.465 190.382 170.352 190.561C170.241 190.74 170.158 190.967 170.103 191.244C170.047 191.518 170.02 191.843 170.02 192.221V192.665C170.02 193.039 170.044 193.363 170.093 193.637C170.142 193.91 170.22 194.136 170.327 194.315C170.438 194.494 170.579 194.628 170.752 194.716C170.924 194.804 171.134 194.848 171.382 194.848C171.665 194.848 171.901 194.804 172.09 194.716C172.279 194.625 172.424 194.488 172.524 194.306C172.625 194.123 172.684 193.894 172.7 193.617ZM181.094 192.289V192.606C181.094 193.147 181.019 193.632 180.869 194.062C180.723 194.491 180.513 194.857 180.239 195.16C179.969 195.463 179.647 195.696 179.272 195.858C178.901 196.018 178.49 196.098 178.037 196.098C177.585 196.098 177.171 196.018 176.797 195.858C176.423 195.696 176.097 195.463 175.82 195.16C175.547 194.857 175.335 194.491 175.186 194.062C175.036 193.632 174.961 193.147 174.961 192.606V192.289C174.961 191.749 175.036 191.264 175.186 190.834C175.335 190.401 175.545 190.033 175.815 189.73C176.089 189.428 176.413 189.197 176.787 189.037C177.161 188.874 177.575 188.793 178.027 188.793C178.48 188.793 178.893 188.874 179.268 189.037C179.642 189.197 179.964 189.428 180.234 189.73C180.508 190.033 180.719 190.401 180.869 190.834C181.019 191.264 181.094 191.749 181.094 192.289ZM179.487 192.606V192.279C179.487 191.918 179.455 191.599 179.39 191.322C179.325 191.042 179.23 190.808 179.106 190.619C178.983 190.43 178.83 190.289 178.647 190.194C178.465 190.097 178.258 190.048 178.027 190.048C177.786 190.048 177.576 190.097 177.397 190.194C177.218 190.289 177.067 190.43 176.943 190.619C176.823 190.808 176.73 191.042 176.665 191.322C176.603 191.599 176.572 191.918 176.572 192.279V192.606C176.572 192.965 176.603 193.284 176.665 193.563C176.73 193.84 176.825 194.075 176.948 194.267C177.072 194.459 177.223 194.604 177.402 194.701C177.585 194.799 177.796 194.848 178.037 194.848C178.268 194.848 178.473 194.799 178.652 194.701C178.835 194.604 178.988 194.459 179.111 194.267C179.235 194.075 179.328 193.84 179.39 193.563C179.455 193.284 179.487 192.965 179.487 192.606ZM187.935 188.891V196H186.348L183.662 191.405V196H182.07V188.891H183.662L186.353 193.485V188.891H187.935ZM192.275 188.891V196H190.688V188.891H192.275ZM194.438 188.891V190.126H188.569V188.891H194.438ZM195.225 188.891H197.954C198.498 188.891 198.968 188.972 199.365 189.135C199.766 189.298 200.073 189.538 200.288 189.857C200.503 190.176 200.61 190.57 200.61 191.039C200.61 191.43 200.547 191.762 200.42 192.035C200.293 192.309 200.114 192.535 199.883 192.714C199.655 192.893 199.388 193.038 199.082 193.148L198.564 193.432H196.24L196.23 192.196H197.959C198.197 192.196 198.394 192.154 198.55 192.069C198.706 191.985 198.823 191.866 198.901 191.713C198.983 191.557 199.023 191.374 199.023 191.166C199.023 190.951 198.983 190.766 198.901 190.609C198.82 190.453 198.7 190.334 198.54 190.253C198.384 190.168 198.188 190.126 197.954 190.126H196.816V196H195.225V188.891ZM199.16 196L197.563 192.841L199.243 192.836L200.864 195.927V196H199.16ZM204.644 190.243L202.808 196H201.108L203.74 188.891H204.814L204.644 190.243ZM206.167 196L204.326 190.243L204.136 188.891H205.225L207.866 196H206.167ZM206.089 193.354V194.584H202.383V193.354H206.089ZM210.708 196H209.146L209.155 194.77H210.708C211.063 194.77 211.362 194.688 211.606 194.525C211.851 194.359 212.036 194.115 212.163 193.793C212.29 193.467 212.354 193.072 212.354 192.606V192.279C212.354 191.928 212.318 191.618 212.246 191.352C212.174 191.081 212.069 190.855 211.929 190.673C211.789 190.491 211.615 190.354 211.406 190.263C211.201 190.172 210.965 190.126 210.698 190.126H209.116V188.891H210.698C211.18 188.891 211.619 188.972 212.017 189.135C212.417 189.298 212.762 189.53 213.052 189.833C213.345 190.136 213.571 190.494 213.73 190.907C213.89 191.321 213.97 191.781 213.97 192.289V192.606C213.97 193.111 213.89 193.572 213.73 193.988C213.571 194.402 213.345 194.76 213.052 195.062C212.762 195.362 212.419 195.593 212.021 195.756C211.624 195.919 211.187 196 210.708 196ZM210.049 188.891V196H208.457V188.891H210.049ZM217.788 190.243L215.952 196H214.253L216.885 188.891H217.959L217.788 190.243ZM219.312 196L217.471 190.243L217.28 188.891H218.369L221.011 196H219.312ZM219.233 193.354V194.584H215.527V193.354H219.233Z" fill="#515255"/>
</svg>
